<?xml version="1.0" standalone="no"?>
<!DOCTYPE svg PUBLIC "-//W3C//DTD SVG 20010904//EN"
 "http://www.w3.org/TR/2001/REC-SVG-20010904/DTD/svg10.dtd">
<svg version="1.0" xmlns="http://www.w3.org/2000/svg"
 width="500.000000pt" height="500.000000pt" viewBox="0 0 500.000000 500.000000"
 preserveAspectRatio="xMidYMid meet">

<g transform="translate(0.000000,500.000000) scale(0.100000,-0.100000)"
fill="#000000" stroke="none">
<path d="M3767 2024 c-10 -11 -8 -52 3 -59 6 -4 10 -57 10 -126 0 -73 -4 -119
-10 -119 -5 0 -10 -13 -10 -30 l0 -30 70 0 70 0 0 30 c0 17 -4 30 -10 30 -6 0
-11 62 -12 153 l-3 152 -50 3 c-28 2 -54 0 -58 -4z"/>
<path d="M3930 1995 c0 -19 5 -35 10 -35 6 0 10 -45 10 -115 0 -94 -3 -117
-15 -121 -9 -4 -15 -19 -15 -35 l0 -29 75 0 75 0 0 30 c0 20 -5 30 -15 30 -13
0 -15 24 -15 155 l0 155 -55 0 -55 0 0 -35z"/>
<path d="M1035 1996 c-74 -32 -116 -124 -96 -211 13 -55 22 -70 65 -103 34
-26 110 -30 143 -7 19 13 22 13 27 0 4 -11 20 -15 56 -15 l50 0 0 60 c0 33 4
60 10 60 6 0 10 11 10 25 0 25 -1 25 -85 25 -78 0 -85 -2 -85 -20 0 -10 7 -23
17 -28 25 -15 9 -42 -26 -42 -36 0 -71 40 -71 82 0 71 59 120 100 83 11 -10
20 -24 20 -32 0 -9 14 -13 45 -13 l45 0 0 70 0 70 -35 0 c-21 0 -38 -6 -41
-14 -4 -11 -12 -10 -42 5 -42 22 -66 23 -107 5z"/>
<path d="M2570 1970 c0 -20 5 -30 15 -30 12 0 15 -18 15 -105 0 -85 -3 -107
-15 -111 -9 -4 -15 -19 -15 -35 l0 -29 90 0 90 0 0 30 c0 25 -4 30 -25 30 -22
0 -25 4 -25 35 0 35 0 35 45 35 43 0 45 1 45 30 0 29 -2 30 -45 30 l-45 0 0
45 c0 45 0 45 34 45 28 0 35 -4 38 -22 2 -19 10 -24 46 -26 l42 -3 0 55 0 56
-145 0 -145 0 0 -30z"/>
<path d="M3430 1971 c0 -16 5 -31 11 -33 8 -3 1 -39 -21 -111 -27 -85 -37
-107 -52 -107 -13 0 -18 -8 -18 -30 l0 -30 80 0 80 0 0 30 c0 20 -5 30 -15 30
-8 0 -15 9 -15 21 0 18 5 20 52 17 41 -2 54 -7 56 -20 2 -13 -3 -18 -17 -18
-17 0 -21 -6 -21 -30 l0 -30 95 0 95 0 0 29 c0 19 -6 31 -16 33 -11 2 -29 44
-58 138 l-42 135 -97 3 -97 3 0 -30z m129 -138 c1 -8 -11 -13 -28 -13 -32 0
-32 0 -4 80 3 10 10 3 18 -20 8 -19 14 -41 14 -47z"/>
<path d="M1370 1906 c-35 -13 -48 -39 -32 -63 5 -9 17 -9 48 -1 44 12 74 6 74
-14 0 -9 -13 -12 -43 -10 -52 4 -94 -25 -103 -73 -12 -65 70 -115 135 -82 17
9 31 11 31 6 0 -5 25 -9 55 -9 54 0 55 0 55 30 0 20 -5 30 -15 30 -12 0 -15
14 -15 63 0 72 -16 102 -66 123 -40 17 -77 17 -124 0z m90 -165 c0 -20 -17
-31 -37 -24 -7 3 -13 13 -13 24 0 14 7 19 25 19 18 0 25 -5 25 -19z"/>
<path d="M3310 1913 c-8 -3 -22 -12 -32 -20 -11 -10 -18 -11 -23 -4 -3 6 -26
11 -51 11 -42 0 -44 -1 -44 -30 0 -16 5 -30 10 -30 6 0 10 -27 10 -60 0 -33
-4 -60 -10 -60 -5 0 -10 -13 -10 -30 l0 -30 70 0 70 0 0 30 c0 20 -5 30 -16
30 -12 0 -14 9 -12 43 3 36 7 44 35 57 29 13 33 19 33 58 0 42 -2 45 -30 35z"/>
<path d="M1732 1894 c-12 -8 -22 -10 -22 -5 0 6 -22 11 -50 11 -49 0 -50 -1
-50 -30 0 -16 5 -30 10 -30 6 0 10 -27 10 -60 0 -33 -4 -60 -10 -60 -5 0 -10
-13 -10 -30 l0 -30 70 0 70 0 0 30 c0 17 -4 30 -10 30 -6 0 -10 27 -10 61 0
52 2 60 18 57 14 -3 17 -17 20 -91 l3 -87 59 0 60 0 0 35 c0 19 -5 35 -11 35
-6 0 -9 21 -7 53 2 38 7 52 18 52 12 0 16 -18 18 -87 l3 -88 59 0 60 0 0 35
c0 19 -4 35 -10 35 -5 0 -10 22 -10 49 0 26 -5 62 -10 78 -18 49 -84 68 -128
37 -20 -14 -24 -14 -44 0 -12 9 -34 16 -48 16 -14 0 -36 -7 -48 -16z"/>
<path d="M2099 1887 c-49 -32 -67 -88 -48 -147 19 -59 56 -85 122 -85 57 0
117 20 117 40 0 21 -34 45 -50 35 -33 -21 -100 -6 -100 22 0 4 34 8 75 8 87 0
95 7 76 71 -23 75 -121 104 -192 56z m109 -64 c2 -9 -8 -13 -32 -13 -34 0 -44
8 -29 24 11 11 56 2 61 -11z"/>
<path d="M2352 1898 c-22 -11 -39 -49 -33 -78 5 -27 33 -49 82 -65 27 -9 49
-21 49 -26 0 -15 -60 -10 -66 6 -4 9 -19 15 -40 15 -34 0 -34 -1 -34 -45 0
-43 1 -45 29 -45 17 0 32 4 35 9 3 5 22 3 43 -4 66 -23 123 8 123 66 0 33 -35
64 -91 81 -22 6 -39 17 -39 25 0 18 35 17 54 -2 8 -8 28 -15 45 -15 29 0 31 2
31 40 0 38 -2 40 -29 40 -17 0 -33 -5 -36 -10 -4 -7 -14 -5 -28 5 -25 17 -62
18 -95 3z"/>
<path d="M2943 1895 c-38 -16 -73 -68 -73 -108 0 -79 56 -131 141 -130 53 1
93 23 115 64 58 112 -63 227 -183 174z m97 -112 c0 -32 -17 -63 -35 -63 -34 0
-46 70 -18 109 l16 24 19 -23 c10 -12 18 -33 18 -47z"/>
</g>
</svg>
